PathFileType	4	(X/Y/Z)	D:\Share\Shared_Data\Ergonomics\Sit To Stand Pertubation\S2\Perturbed.trc
DataRate	CameraRate	NumFrames	NumMarkers	Units	OrigDataRate	OrigDataStartFrame	OrigNumFrames	
100	100	9	18	m	100	13411	241
Frame#	Time	R_Toe			R_ASIS			R_Pelvis			V_Sacral			L_Pelvis			L_ASIS			Clavical			R_Acromium			L_Acromium			Sternum			Torso			R_Thigh_Med			R_Thigh_Lat			R_Thigh			R_Shank_Med			R_Shank_Lat			R_Shank			R_Heel			
		X1	Y1	Z1	X2	Y2	Z2	X3	Y3	Z3	X4	Y4	Z4	X5	Y5	Z5	X6	Y6	Z6	X7	Y7	Z7	X8	Y8	Z8	X9	Y9	Z9	X10	Y10	Z10	X11	Y11	Z11	X12	Y12	Z12	X13	Y13	Z13	X14	Y14	Z14	X15	Y15	Z15	X16	Y16	Z16	X17	Y17	Z17	X18	Y18	Z18	

13411	134.1	0.42814438	0.066557816	0.14447203	-0.08250869	0.64297638	0.12322324	-0.16598209	0.64029944	0.16448053	-0.30078497	0.57905713	0.015220503	-0.20839235	0.63341956	-0.174964	-0.1122554	0.64881165	-0.14610092	-0.020357903	1.0153246	-0.0010984541	-0.11320329	1.0502974	0.20155922	-0.11601345	1.0539633	-0.18917014	-0.0042968035	0.85119196	-0.00057149798	-0.015242405	0.97108234	-0.11590084	0.30455038	0.51104242	0.1301804	0.27000708	0.51538031	0.23266501	0.11356322	0.62396954	0.17806683	0.29183871	0.11228615	0.10929839	0.27075131	0.10120096	0.20286487	0.27670709	0.362552	0.24250894	0.19082359	0.061803909	0.14812993
13412	134.11	0.42813553	0.066570824	0.14446892	-0.082468239	0.64283185	0.12323871	-0.16604604	0.640229	0.16485545	-0.30094095	0.57917017	0.015283479	-0.2084512	0.63364172	-0.174908	-0.11220139	0.6488194	-0.14609094	-0.015442046	1.0131569	-0.00056289721	-0.10763937	1.0492478	0.20211087	-0.11059803	1.0532354	-0.18862099	-0.0015510885	0.84889221	-0.00018036002	-0.010970099	0.96898877	-0.11537808	0.30435498	0.51102484	0.13024985	0.26974884	0.51533948	0.23269534	0.11338979	0.62395941	0.17812473	0.29178931	0.11226524	0.10931285	0.27072595	0.10117375	0.20285033	0.27652899	0.36252829	0.24254958	0.1908205	0.06178698	0.14814136
13413	134.12	0.4281264	0.066583809	0.14446332	-0.082405899	0.64265363	0.12327506	-0.16599568	0.64014581	0.16511861	-0.30107486	0.57933032	0.01536159	-0.2084735	0.63390204	-0.1748493	-0.11205881	0.6488349	-0.14609332	-0.010378305	1.0108738	-2.4576072e-05	-0.10188011	1.0481147	0.20267291	-0.10497897	1.0524242	-0.18805873	0.001303912	0.8465174	0.00021966128	-0.0065361557	0.96680078	-0.11483832	0.30416318	0.51100134	0.13029413	0.26949417	0.51529492	0.23268437	0.11322733	0.62394031	0.17815947	0.2917446	0.11224496	0.10932542	0.27070001	0.10114116	0.2028241	0.27635553	0.36250958	0.2425874	0.1908167	0.061769218	0.14815349
13414	134.13	0.42811646	0.066597481	0.14445334	-0.082301727	0.64244135	0.1233364	-0.16580318	0.64004541	0.16520503	-0.30118399	0.57954175	0.015453762	-0.20844841	0.63418988	-0.17473418	-0.11178419	0.64888623	-0.1461098	-0.0051673088	1.0084728	0.00051182944	-0.095926941	1.0468969	0.20324289	-0.0991595	1.0515297	-0.18748662	0.0042714558	0.84406891	0.00062518501	-0.0019451041	0.96451691	-0.11428526	0.30396539	0.51097287	0.13031207	0.26924512	0.51524731	0.23263347	0.11307692	0.62391425	0.17817538	0.29170422	0.1122251	0.10933549	0.27067267	0.10110346	0.20278696	0.2761843	0.36249564	0.24261816	0.19081212	0.061750404	0.148166
13415	134.14	0.42810538	0.066612701	0.14443788	-0.082136177	0.64218842	0.12342473	-0.16546909	0.63992877	0.16510257	-0.30126602	0.5798075	0.015558225	-0.208367	0.63450427	-0.17454105	-0.1113399	0.64899823	-0.14614096	0.00019731568	1.0059544	0.0010452576	-0.089780586	1.0455918	0.2038177	-0.093143028	1.0505513	-0.18690469	0.0073539267	0.84154749	0.0010323335	0.0027972231	0.96213458	-0.11372481	0.3037551	0.51094162	0.13030531	0.26900397	0.51519867	0.23255028	0.11293853	0.62388367	0.17817691	0.29166718	0.11220518	0.1093424	0.27064374	0.10106258	0.20274265	0.27601236	0.36248593	0.24263879	0.19080679	0.061730331	0.14817854
13416	134.15	0.42809338	0.066629807	0.14441713	-0.081896942	0.64188086	0.12353964	-0.16501639	0.63980444	0.16485039	-0.30131863	0.58012958	0.015673196	-0.20822226	0.63485065	-0.17427515	-0.11070058	0.64918951	-0.1461848	0.0057263031	1.0033212	0.0015770739	-0.083441216	1.0441973	0.20439409	-0.086931816	1.0494879	-0.18631042	0.010553684	0.83895245	0.0014371866	0.0076857057	0.95965155	-0.11316352	0.30353125	0.5109101	0.13027892	0.26877319	0.51515137	0.2324482	0.11281148	0.62385089	0.17816817	0.29163184	0.11218458	0.10934575	0.2706134	0.10102259	0.2026987	0.27583737	0.3624794	0.24264822	0.19080086	0.061708878	0.14819063
13417	134.16	0.42808118	0.066648323	0.14439284	-0.081580544	0.64150165	0.12367799	-0.16447769	0.63968396	0.16451216	-0.30133969	0.58050842	0.015798053	-0.20800829	0.63523584	-0.17395178	-0.10985912	0.64946973	-0.14623532	0.011428623	1.0005741	0.0021062431	-0.076908424	1.04271	0.20496912	-0.080526146	1.0483347	-0.18570164	0.013873448	0.83628204	0.0018364899	0.012718402	0.95706555	-0.112606	0.30329858	0.51088016	0.13024083	0.26855545	0.51510754	0.23234283	0.11269494	0.62381744	0.17815347	0.29159656	0.11216269	0.10934554	0.27058228	0.10098868	0.20266426	0.27565793	0.3624743	0.24264813	0.19079451	0.061686169	0.14820168
13418	134.17	0.42807013	0.066667114	0.14436847	-0.081192314	0.64104309	0.12383487	-0.16388503	0.63958099	0.16415591	-0.30132642	0.58094342	0.015934091	-0.20771991	0.63566534	-0.17358479	-0.10882956	0.64983606	-0.14628188	0.017308336	0.99771167	0.0026273291	-0.070180855	1.0411257	0.2055408	-0.073924721	1.0470834	-0.18507982	0.017314388	0.83353229	0.0022283449	0.017898279	0.95437592	-0.11205258	0.3030676	0.51085287	0.13020038	0.26835233	0.51506769	0.23224751	0.11258836	0.62378418	0.17813783	0.29155988	0.1121393	0.10934204	0.27055072	0.100965	0.20264665	0.27547528	0.36246918	0.24264293	0.19078783	0.061662884	0.14821121
13419	134.18	0.42806165	0.066684532	0.14434827	-0.080747559	0.64052161	0.12400574	-0.16326357	0.6395119	0.16384923	-0.3012753	0.58143268	0.016083961	-0.20735236	0.63614203	-0.17318291	-0.10764619	0.65027356	-0.14631018	0.023365341	0.99472998	0.0031316924	-0.063255638	1.0394409	0.20610771	-0.067126114	1.0457233	-0.18444983	0.020873455	0.83069635	0.0026131656	0.023232786	0.95158258	-0.11150029	0.30285144	0.51082831	0.13016615	0.26816455	0.51503088	0.23217128	0.11249147	0.62375104	0.17812709	0.29152087	0.11211501	0.10933575	0.27051877	0.10095387	0.2026489	0.27529431	0.36246307	0.24263966	0.19078079	0.061640255	0.14821901
